<svg xmlns="http://www.w3.org/2000/svg" viewBox="0 0 1200 675" role="img" aria-label="Ritual TCG spotlight">
  <defs>
    <linearGradient id="bg" x1="0" x2="1" y1="0" y2="1">
      <stop offset="0" stop-color="#1a0f1d"/>
      <stop offset="0.45" stop-color="#101a2b"/>
      <stop offset="1" stop-color="#32110e"/>
    </linearGradient>
    <linearGradient id="flare" x1="0" x2="1" y1="0" y2="0">
      <stop offset="0" stop-color="#ff7a1a" stop-opacity="0.95"/>
      <stop offset="0.55" stop-color="#ff2e78" stop-opacity="0.7"/>
      <stop offset="1" stop-color="#58e7ff" stop-opacity="0.75"/>
    </linearGradient>
    <filter id="glow" x="-20%" y="-20%" width="140%" height="140%">
      <feGaussianBlur stdDeviation="8" result="blur"/>
      <feMerge>
        <feMergeNode in="blur"/>
        <feMergeNode in="SourceGraphic"/>
      </feMerge>
    </filter>
    <pattern id="dots" width="34" height="34" patternUnits="userSpaceOnUse">
      <circle cx="4" cy="4" r="2.4" fill="#ffffff" opacity="0.16"/>
    </pattern>
  </defs>
  <rect width="1200" height="675" fill="url(#bg)"/>
  <rect width="1200" height="675" fill="url(#dots)" opacity="0.7"/>
  <path d="M-70 550 C170 390 280 500 445 330 C585 185 730 204 895 80 C1015 -10 1165 8 1270 -60 L1270 675 L-70 675 Z" fill="url(#flare)" opacity="0.24"/>
  <path d="M81 532 C210 456 329 460 460 356 C610 238 743 268 923 151 C1039 76 1124 72 1200 60" fill="none" stroke="url(#flare)" stroke-width="18" opacity="0.8" filter="url(#glow)"/>
  <g transform="translate(76 88)">
    <rect x="0" y="0" width="260" height="260" rx="32" fill="#0b1322" stroke="#5be8ff" stroke-opacity="0.55" stroke-width="3"/>
    <circle cx="130" cy="130" r="88" fill="#ff7a1a" opacity="0.22"/>
    <path d="M132 44 C156 78 194 91 220 91 C193 116 184 160 197 196 C163 177 117 181 89 205 C95 165 75 125 43 101 C80 97 112 75 132 44 Z" fill="#ff6a1f" opacity="0.95"/>
    <path d="M132 73 C150 97 176 106 196 106 C174 123 168 153 177 178 C153 164 119 168 99 184 C103 155 88 128 67 112 C94 110 117 96 132 73 Z" fill="#101a2b"/>
    <text x="130" y="244" text-anchor="middle" font-family="Arial, Helvetica, sans-serif" font-size="27" font-weight="800" fill="#ffffff" letter-spacing="2">RITUAL</text>
  </g>
  <g transform="translate(386 104)">
    <text font-family="Arial, Helvetica, sans-serif" font-size="28" font-weight="800" fill="#6eeeff" letter-spacing="6">CREATOR SPOTLIGHT</text>
    <text y="86" font-family="Arial, Helvetica, sans-serif" font-size="92" font-weight="900" fill="#ffffff">Ritual_TCG</text>
    <text y="139" font-family="Arial, Helvetica, sans-serif" font-size="34" font-weight="800" fill="#ffbf7a">#1 Riftbound Meme Creator</text>
    <text y="203" font-family="Arial, Helvetica, sans-serif" font-size="28" font-weight="700" fill="#d6e8ff">Below Average Riftbound Community</text>
    <g transform="translate(0 260)" font-family="Arial, Helvetica, sans-serif" font-size="23" font-weight="700" fill="#ffffff">
      <rect x="0" y="0" width="188" height="48" rx="24" fill="#102236" stroke="#5be8ff" stroke-opacity="0.5"/>
      <text x="94" y="31" text-anchor="middle">Nexus Nights</text>
      <rect x="208" y="0" width="225" height="48" rx="24" fill="#22162e" stroke="#ff78b0" stroke-opacity="0.5"/>
      <text x="320" y="31" text-anchor="middle">Monthly events</text>
      <rect x="453" y="0" width="144" height="48" rx="24" fill="#301912" stroke="#ffbf7a" stroke-opacity="0.55"/>
      <text x="525" y="31" text-anchor="middle">Twitch</text>
    </g>
  </g>
  <g transform="translate(76 575)">
    <text font-family="Arial, Helvetica, sans-serif" font-size="24" font-weight="800" fill="#ffffff">TikTok @ritual_tcg  |  Twitch ritual_tcg  |  Discord XRJEW2CcMt</text>
  </g>
</svg>
